<svg width="453" height="367" viewBox="0 0 453 367" fill="none" xmlns="http://www.w3.org/2000/svg">
<g opacity="0.52">
<path d="M447.192 254.288L424.715 250.542C422.521 250.176 420.67 248.705 419.818 246.649L416.047 237.545C415.195 235.488 415.464 233.139 416.758 231.328L430.003 212.784C431.836 210.218 431.544 206.705 429.316 204.475L418.543 193.701C416.313 191.472 412.799 191.182 410.233 193.014L391.689 206.26C389.879 207.553 387.528 207.822 385.472 206.971L376.369 203.199C374.314 202.348 372.841 200.497 372.475 198.302L368.729 175.823C368.211 172.714 365.519 170.433 362.366 170.433H347.13C343.977 170.433 341.287 172.712 340.769 175.823L337.023 198.302C336.657 200.497 335.185 202.349 333.129 203.201L324.026 206.971C321.969 207.822 319.619 207.553 317.809 206.26L299.265 193.014C296.7 191.182 293.185 191.473 290.955 193.701L280.182 204.475C277.952 206.705 277.662 210.218 279.495 212.784L292.74 231.327C294.034 233.137 294.303 235.488 293.451 237.545L289.68 246.649C288.828 248.705 286.976 250.176 284.781 250.542L262.304 254.288C259.195 254.806 256.914 257.498 256.914 260.651V275.887C256.914 279.04 259.193 281.73 262.304 282.25L284.027 285.87C286.37 286.26 288.351 287.897 289.059 290.165C290.077 293.426 291.32 296.585 292.788 299.617C293.789 301.683 293.505 304.143 292.17 306.011L279.497 323.755C277.664 326.32 277.955 329.835 280.185 332.065L290.958 342.838C293.188 345.068 296.702 345.358 299.268 343.526L316.58 331.161C318.496 329.793 321.034 329.531 323.125 330.613C326.313 332.263 329.645 333.669 333.101 334.812C335.324 335.547 336.906 337.528 337.292 339.838L340.772 360.719C341.29 363.828 343.981 366.109 347.135 366.109H362.37C365.524 366.109 368.215 363.828 368.733 360.719L372.213 339.839C372.599 337.529 374.181 335.549 376.404 334.814C379.86 333.672 383.192 332.266 386.38 330.616C388.472 329.534 391.002 329.79 392.918 331.158C397.356 334.328 405.288 339.993 410.253 343.54C412.817 345.373 416.318 345.072 418.547 342.842L429.32 332.069C431.55 329.839 431.84 326.325 430.008 323.759L417.335 306.015C416 304.147 415.716 301.686 416.717 299.621C418.185 296.59 419.428 293.43 420.446 290.17C421.154 287.902 423.135 286.265 425.478 285.875L447.201 282.254C450.311 281.736 452.591 279.044 452.591 275.891V260.655C452.583 257.498 450.304 254.806 447.192 254.288ZM354.746 310.619C331.357 310.619 312.396 291.659 312.396 268.27C312.396 244.88 331.357 225.918 354.746 225.918C378.135 225.918 397.097 244.879 397.097 268.27C397.097 291.658 378.135 310.619 354.746 310.619Z" fill="#53C7B4"/>
</g>
<path d="M388.022 262.467H272.479C268.736 262.467 265.702 259.433 265.702 255.69V82.2566C265.702 78.5135 268.736 75.4799 272.479 75.4799H388.022C391.765 75.4799 394.798 78.5135 394.798 82.2566V255.69C394.798 259.432 391.765 262.467 388.022 262.467Z" fill="#02687F"/>
<path opacity="0.86" d="M382.775 249.111H277.027C275.204 249.111 273.728 247.632 273.728 245.811V90.2933C273.728 88.4703 275.206 86.9936 277.027 86.9936H382.775C384.598 86.9936 386.076 88.4717 386.076 90.2933V245.809C386.076 247.632 384.598 249.111 382.775 249.111Z" fill="#CBECE5"/>
<path d="M354.193 67.5938H346.571C344.187 67.5938 342.305 65.6582 342.264 63.2735C342.264 63.2327 342.262 63.1919 342.261 63.1525C342.101 57.4963 337.462 52.8015 331.807 52.5833C325.598 52.344 320.488 57.3076 320.488 63.4636C320.488 63.4777 320.488 63.4931 320.488 63.5072C320.496 65.7427 318.772 67.5938 316.536 67.5938H309.775C302.004 67.5938 295.706 73.8933 295.706 81.6625V89.3712H364.794V78.1953C364.794 72.3406 360.048 67.5938 354.193 67.5938ZM331.752 68.7214C329.057 68.7214 326.87 66.5366 326.87 63.8409C326.87 61.1451 329.055 58.9603 331.752 58.9603C334.448 58.9603 336.633 61.1465 336.633 63.8409C336.633 66.5352 334.448 68.7214 331.752 68.7214Z" fill="#53C7B4"/>
<path d="M289.777 112.653H370.724" stroke="#53C7B4" stroke-width="4" stroke-miterlimit="10" stroke-linecap="round"/>
<path d="M289.777 143.064H370.724" stroke="#53C7B4" stroke-width="4" stroke-miterlimit="10" stroke-linecap="round"/>
<path d="M289.777 169.348H370.724" stroke="#53C7B4" stroke-width="4" stroke-miterlimit="10" stroke-linecap="round"/>
<path d="M289.777 200.793H370.724" stroke="#53C7B4" stroke-width="4" stroke-miterlimit="10" stroke-linecap="round"/>
<path d="M175.838 112.986L160.908 110.497C159.449 110.253 158.22 109.276 157.654 107.911L155.149 101.863C154.583 100.498 154.762 98.9365 155.62 97.7343L164.419 85.4168C165.636 83.712 165.443 81.378 163.962 79.8971L156.807 72.7417C155.326 71.2608 152.992 71.0679 151.287 72.2856L138.97 81.0838C137.768 81.9425 136.206 82.1213 134.84 81.5554L128.792 79.0511C127.427 78.4852 126.45 77.2562 126.206 75.7978L123.717 60.8676C123.372 58.8025 121.586 57.2878 119.491 57.2878H109.371C107.276 57.2878 105.489 58.8025 105.145 60.8676L102.656 75.7978C102.413 77.2562 101.436 78.4866 100.07 79.0525L94.0228 81.5568C92.6573 82.1227 91.0961 81.9439 89.8925 81.0852L77.575 72.287C75.8703 71.0693 73.5363 71.2636 72.0554 72.7431L64.8999 79.8985C63.419 81.3794 63.2261 83.7134 64.4438 85.4182L73.2421 97.7343C74.1008 98.9379 74.2796 100.499 73.7137 101.865L71.2079 107.912C70.642 109.278 69.4117 110.256 67.9547 110.498L53.0244 112.987C50.9593 113.332 49.4446 115.118 49.4446 117.213V127.333C49.4446 129.428 50.9593 131.214 53.0244 131.559L67.4521 133.963C69.0091 134.222 70.3239 135.311 70.7941 136.817C71.4698 138.982 72.2947 141.081 73.2702 143.094C73.9347 144.466 73.746 146.101 72.8591 147.341L64.441 159.126C63.2233 160.83 63.4176 163.165 64.8985 164.646L72.0539 171.801C73.5349 173.282 75.8689 173.475 77.5736 172.259L89.0733 164.045C90.3458 163.135 92.0309 162.962 93.4203 163.682C95.5389 164.778 97.7519 165.712 100.046 166.47C101.523 166.959 102.575 168.274 102.829 169.808L105.141 183.677C105.486 185.743 107.272 187.257 109.367 187.257H119.487C121.582 187.257 123.369 185.742 123.713 183.677L126.024 169.808C126.281 168.274 127.331 166.957 128.808 166.469C131.102 165.71 133.316 164.777 135.434 163.68C136.823 162.961 138.502 163.131 139.776 164.041C142.724 166.147 147.993 169.909 151.29 172.265C152.995 173.482 155.319 173.282 156.8 171.801L163.955 164.646C165.436 163.165 165.629 160.831 164.412 159.126L155.993 147.341C155.106 146.099 154.918 144.466 155.582 143.094C156.558 141.081 157.383 138.982 158.06 136.815C158.53 135.309 159.846 134.222 161.402 133.962L175.831 131.558C177.896 131.213 179.411 129.426 179.411 127.332V117.211C179.418 115.117 177.903 113.329 175.838 112.986ZM114.432 150.401C98.8963 150.401 86.3015 137.806 86.3015 122.271C86.3015 106.735 98.8963 94.1404 114.432 94.1404C129.967 94.1404 142.562 106.735 142.562 122.271C142.562 137.808 129.967 150.401 114.432 150.401Z" fill="#19657C"/>
<path d="M203.349 47.9603C216.566 47.9603 227.28 37.2459 227.28 24.0291C227.28 10.8122 216.566 0.0978699 203.349 0.0978699C190.132 0.0978699 179.418 10.8122 179.418 24.0291C179.418 37.2459 190.132 47.9603 203.349 47.9603Z" fill="#CBECE5"/>
<path d="M24.5688 184.509C37.7856 184.509 48.5 173.795 48.5 160.578C48.5 147.361 37.7856 136.647 24.5688 136.647C11.3519 136.647 0.637573 147.361 0.637573 160.578C0.637573 173.795 11.3519 184.509 24.5688 184.509Z" fill="#CBECE5"/>
<path d="M153.375 45.1448C159.206 45.1448 163.933 40.4179 163.933 34.587C163.933 28.756 159.206 24.0291 153.375 24.0291C147.544 24.0291 142.817 28.756 142.817 34.587C142.817 40.4179 147.544 45.1448 153.375 45.1448Z" fill="#CBECE5"/>
<path d="M343.559 335.241H123.63L139.501 182.268H351.426C356.3 182.268 360.093 186.505 359.554 191.351L343.559 335.241Z" fill="#02687F"/>
<path d="M334.359 334.666H114.428L129.602 188.414C129.997 184.595 133.215 181.694 137.056 181.694H346.475C349.082 181.694 351.112 183.96 350.823 186.552L334.359 334.666Z" fill="#53C7B4"/>
<path d="M331.476 351.343H49.1211C42.9468 351.343 37.9424 346.339 37.9424 340.165V334.09H342.737V340.082C342.737 346.301 337.695 351.343 331.476 351.343Z" fill="#008196"/>
<path d="M332.129 351.343H251.974C244.932 351.343 239.222 345.634 239.222 338.591V334.09H343.887V339.585C343.887 346.079 338.622 351.343 332.129 351.343Z" fill="#02687F"/>
<path d="M323.184 319.139H125.354L139.157 193.771H335.836L323.184 319.139Z" fill="white"/>
<path d="M158.902 339.842H98.7107C95.6405 339.842 93.1516 337.354 93.1516 334.283V334.092H164.462V334.283C164.461 337.354 161.972 339.842 158.902 339.842Z" fill="#02687F"/>
<path d="M235.196 189.744C236.466 189.744 237.496 188.715 237.496 187.444C237.496 186.174 236.466 185.144 235.196 185.144C233.926 185.144 232.896 186.174 232.896 187.444C232.896 188.715 233.926 189.744 235.196 189.744Z" fill="#008196"/>
<path d="M284.963 192.988C292.749 181.939 297.324 168.465 297.324 153.919C297.324 115.328 265.153 84.2501 226.168 86.0421C191.44 87.6385 163.216 115.765 161.507 150.487C160.654 167.804 166.294 183.78 176.198 196.209C183.588 205.481 187.963 216.797 189.272 228.581L190.463 239.295H268.287L268.804 234.649C270.473 219.594 276.238 205.372 284.963 192.988Z" fill="#E5B14A"/>
<g opacity="0.86">
<path d="M250.655 139.561L242.186 138.149C241.359 138.011 240.662 137.456 240.341 136.682L238.919 133.251C238.598 132.477 238.7 131.592 239.187 130.909L244.177 123.921C244.868 122.954 244.758 121.629 243.918 120.79L239.858 116.73C239.018 115.89 237.693 115.78 236.727 116.471L229.741 121.462C229.058 121.949 228.173 122.05 227.398 121.729L223.968 120.309C223.194 119.988 222.639 119.291 222.501 118.463L221.089 109.993C220.893 108.822 219.88 107.962 218.692 107.962H212.951C211.763 107.962 210.749 108.82 210.554 109.993L209.142 118.463C209.004 119.291 208.449 119.988 207.675 120.309L204.244 121.729C203.47 122.05 202.583 121.949 201.902 121.462L194.914 116.471C193.947 115.782 192.624 115.89 191.783 116.73L187.723 120.79C186.883 121.631 186.773 122.955 187.464 123.921L192.455 130.907C192.942 131.59 193.043 132.476 192.722 133.25L191.3 136.681C190.979 137.455 190.281 138.009 189.455 138.147L180.986 139.559C179.813 139.755 178.955 140.769 178.955 141.957V147.697C178.955 148.885 179.813 149.899 180.986 150.095L189.17 151.459C190.053 151.607 190.801 152.223 191.067 153.078C191.45 154.307 191.918 155.496 192.472 156.639C192.849 157.418 192.742 158.345 192.239 159.049L187.464 165.734C186.774 166.702 186.883 168.026 187.723 168.865L191.783 172.925C192.624 173.765 193.947 173.875 194.914 173.184L201.437 168.525C202.159 168.008 203.115 167.909 203.904 168.318C205.104 168.94 206.36 169.469 207.662 169.9C208.5 170.177 209.097 170.923 209.242 171.793L210.554 179.661C210.749 180.832 211.763 181.692 212.951 181.692H218.692C219.88 181.692 220.893 180.834 221.089 179.661L222.4 171.793C222.545 170.923 223.141 170.176 223.979 169.9C225.281 169.469 226.537 168.94 227.738 168.318C228.526 167.909 229.479 168.006 230.201 168.522C231.874 169.717 234.862 171.851 236.733 173.187C237.7 173.877 239.019 173.764 239.858 172.924L243.918 168.864C244.758 168.023 244.868 166.699 244.177 165.733L239.402 159.048C238.899 158.344 238.792 157.418 239.17 156.638C239.723 155.496 240.192 154.305 240.575 153.076C240.841 152.222 241.588 151.605 242.471 151.457L250.655 150.093C251.828 149.898 252.687 148.884 252.687 147.696V141.955C252.687 140.77 251.828 139.756 250.655 139.561ZM215.821 160.786C207.008 160.786 199.863 153.642 199.863 144.828C199.863 136.015 207.008 128.871 215.821 128.871C224.635 128.871 231.779 136.015 231.779 144.828C231.779 153.642 224.635 160.786 215.821 160.786Z" fill="white"/>
</g>
<g opacity="0.52">
<path d="M258.078 215.424L255.773 209.747C255.547 209.192 255.625 208.561 255.975 208.077L257.531 205.932C257.883 205.448 258.459 205.179 259.055 205.22L265.168 205.645C266.014 205.704 266.778 205.142 266.975 204.317L267.927 200.333C268.124 199.508 267.696 198.662 266.915 198.333L261.27 195.948C260.718 195.716 260.327 195.215 260.232 194.624L259.814 192.007C259.72 191.415 259.937 190.819 260.388 190.426L265.011 186.404C265.65 185.848 265.794 184.91 265.351 184.187L263.207 180.696C262.763 179.973 261.862 179.678 261.077 179.996L255.399 182.302C254.845 182.527 254.214 182.45 253.729 182.099L251.583 180.544C251.099 180.193 250.83 179.616 250.871 179.019L251.296 172.907C251.355 172.061 250.793 171.296 249.969 171.099L245.983 170.148C245.158 169.951 244.312 170.378 243.983 171.16L241.598 176.805C241.366 177.357 240.865 177.748 240.274 177.842L237.657 178.259C237.065 178.353 236.469 178.136 236.076 177.685L232.054 173.062C231.498 172.422 230.56 172.279 229.838 172.722L226.347 174.866C225.625 175.31 225.329 176.211 225.647 176.996L227.876 182.482C228.117 183.073 228.019 183.759 227.6 184.239C226.996 184.931 226.447 185.661 225.96 186.424C225.628 186.943 225.024 187.225 224.409 187.182L218.56 186.776C217.713 186.716 216.949 187.278 216.752 188.103L215.8 192.088C215.603 192.913 216.031 193.759 216.813 194.089L222.082 196.314C222.664 196.561 223.083 197.105 223.129 197.736C223.199 198.699 223.346 199.66 223.571 200.613C223.716 201.226 223.484 201.868 223.009 202.28L218.714 206.016C218.075 206.572 217.932 207.51 218.375 208.232L220.519 211.723C220.963 212.445 221.863 212.741 222.649 212.423L227.922 210.282C228.505 210.045 229.182 210.128 229.664 210.535C230.411 211.166 231.202 211.732 232.03 212.23C232.572 212.557 232.869 213.172 232.825 213.804C232.724 215.266 232.542 217.882 232.428 219.518C232.369 220.364 232.931 221.122 233.756 221.32L237.741 222.271C238.566 222.468 239.412 222.04 239.741 221.259L242.023 215.858C242.264 215.289 242.788 214.878 243.402 214.816C244.303 214.726 245.202 214.565 246.092 214.34C246.711 214.182 247.364 214.406 247.784 214.888L251.67 219.354C252.227 219.993 253.164 220.137 253.886 219.694L257.377 217.55C258.102 217.11 258.398 216.21 258.078 215.424ZM232.161 202.17C228.868 196.811 230.545 189.799 235.904 186.507C241.263 183.214 248.275 184.891 251.568 190.25C254.859 195.609 253.184 202.622 247.825 205.914C242.467 209.206 235.454 207.53 232.161 202.17Z" fill="white"/>
</g>
<path d="M187.079 241.617C184.777 241.617 182.91 243.484 182.91 245.786V252.682C182.91 254.984 184.777 256.85 187.079 256.85H192.153H266.592H271.667C273.969 256.85 275.835 254.984 275.835 252.682V245.786C275.835 243.484 273.969 241.617 271.667 241.617H268.284H190.46H187.079Z" fill="#02687F"/>
<path d="M197.598 272.98H261.148C261.937 272.98 262.632 272.462 262.857 271.706L265.909 261.463C266.25 260.319 265.393 259.17 264.2 259.17H194.547C193.353 259.17 192.497 260.32 192.838 261.463L195.889 271.706C196.113 272.462 196.809 272.98 197.598 272.98Z" fill="#02687F"/>
<path d="M252.022 275.884C252.022 288.393 241.881 298.534 229.372 298.534C216.863 298.534 206.722 288.393 206.722 275.884" fill="#53C7B4"/>
<path opacity="0.74" d="M150.31 238.002H16.1097C14.0291 238.002 12.3427 236.316 12.3427 234.234V199.249C12.3427 197.168 14.0291 195.482 16.1097 195.482H150.31C152.391 195.482 154.079 197.168 154.079 199.249V234.234C154.079 236.316 152.392 238.002 150.31 238.002Z" fill="#02687F"/>
<path d="M144.236 231.928H10.0355C7.95487 231.928 6.26843 230.241 6.26843 228.161V193.175C6.26843 191.094 7.95487 189.408 10.0355 189.408H144.236C146.317 189.408 148.003 191.094 148.003 193.175V228.161C148.005 230.241 146.318 231.928 144.236 231.928Z" fill="#53C7B4"/>
<path d="M137.074 207.631H53.6468C53.2005 207.631 52.8387 207.269 52.8387 206.823V204.387C52.8387 203.941 53.2005 203.579 53.6468 203.579H137.074C137.52 203.579 137.882 203.941 137.882 204.387V206.823C137.88 207.269 137.519 207.631 137.074 207.631Z" fill="#FAF4DA"/>
<path d="M137.074 219.779H53.6468C53.2005 219.779 52.8387 219.417 52.8387 218.971V216.536C52.8387 216.09 53.2005 215.729 53.6468 215.729H137.074C137.52 215.729 137.882 216.091 137.882 216.536V218.971C137.88 219.417 137.519 219.779 137.074 219.779Z" fill="#FAF4DA"/>
<path d="M39.1501 218.246C43.8944 213.502 43.8944 205.81 39.1501 201.066C34.4058 196.322 26.7138 196.322 21.9696 201.066C17.2253 205.81 17.2253 213.502 21.9696 218.246C26.7138 222.991 34.4058 222.991 39.1501 218.246Z" fill="#FAF4DA"/>
<path opacity="0.74" d="M164.388 287.272H73.3829C71.3023 287.272 69.6158 285.586 69.6158 283.504V261.477C69.6158 259.397 71.3023 257.709 73.3829 257.709H164.388C166.468 257.709 168.156 259.395 168.156 261.477V283.504C168.156 285.586 166.47 287.272 164.388 287.272Z" fill="#02687F"/>
<path d="M69.1597 253.487H160.165C162.245 253.487 163.933 255.174 163.933 257.256V279.282C163.933 281.363 162.247 283.051 160.165 283.051H69.1597C67.0791 283.051 65.3927 281.364 65.3927 279.282V257.256C65.3927 255.174 67.0791 253.487 69.1597 253.487Z" fill="#008196"/>
<path d="M73.238 270.38H130.748C131.194 270.38 131.556 270.742 131.556 271.186V272.387C131.556 272.833 131.194 273.194 130.748 273.194H73.238C72.7918 273.194 72.4314 272.832 72.4314 272.387V271.186C72.4314 270.742 72.7932 270.38 73.238 270.38Z" fill="#FAF4DA"/>
<path d="M73.238 261.933H130.748C131.194 261.933 131.556 262.295 131.556 262.74V263.941C131.556 264.387 131.194 264.747 130.748 264.747H73.238C72.7918 264.747 72.4314 264.386 72.4314 263.941V262.74C72.4314 262.295 72.7932 261.933 73.238 261.933Z" fill="#FAF4DA"/>
<path d="M147.04 277.418C151.705 277.418 155.487 273.637 155.487 268.972C155.487 264.307 151.705 260.526 147.04 260.526C142.376 260.526 138.594 264.307 138.594 268.972C138.594 273.637 142.376 277.418 147.04 277.418Z" fill="#FAF4DA"/>
<path opacity="0.74" d="M305.658 235.187H396.662C398.743 235.187 400.431 236.873 400.431 238.955V260.982C400.431 263.062 398.744 264.75 396.662 264.75H305.658C303.577 264.75 301.889 263.064 301.889 260.982V238.955C301.889 236.873 303.576 235.187 305.658 235.187Z" fill="#02687F"/>
<path d="M400.884 256.303H309.88C307.799 256.303 306.111 254.616 306.111 252.534V230.508C306.111 228.427 307.798 226.739 309.88 226.739H400.884C402.965 226.739 404.653 228.426 404.653 230.508V252.534C404.653 254.616 402.966 256.303 400.884 256.303Z" fill="#008196"/>
<path d="M396.807 239.41H339.298C338.852 239.41 338.491 239.048 338.491 238.603V237.403C338.491 236.956 338.853 236.596 339.298 236.596H396.807C397.254 236.596 397.614 236.958 397.614 237.403V238.603C397.614 239.048 397.252 239.41 396.807 239.41Z" fill="#FAF4DA"/>
<path d="M396.807 247.856H339.298C338.852 247.856 338.491 247.495 338.491 247.05V245.849C338.491 245.403 338.853 245.042 339.298 245.042H396.807C397.254 245.042 397.614 245.404 397.614 245.849V247.05C397.614 247.495 397.252 247.856 396.807 247.856Z" fill="#FAF4DA"/>
<path d="M323.005 249.264C327.67 249.264 331.451 245.482 331.451 240.818C331.451 236.153 327.67 232.371 323.005 232.371C318.34 232.371 314.559 236.153 314.559 240.818C314.559 245.482 318.34 249.264 323.005 249.264Z" fill="#FAF4DA"/>
<path d="M423.994 277.925L412.965 267.744C412.533 267.346 411.833 267.652 411.833 268.24V275.476H360.995C359.451 275.476 358.198 276.727 358.198 278.273V300.271C358.198 301.699 359.273 302.898 360.694 303.051C362.348 303.23 363.791 301.935 363.791 300.271V286.074C363.791 284.53 365.042 283.277 366.588 283.277H411.833V289.45C411.833 290.051 412.56 290.352 412.985 289.927L424.014 278.898C424.285 278.627 424.276 278.185 423.994 277.925Z" fill="#53C7B4"/>
<path d="M421.715 292.609C420.061 292.43 418.618 293.725 418.618 295.389V309.586C418.618 311.13 417.367 312.383 415.821 312.383H370.576V306.21C370.576 305.609 369.849 305.308 369.424 305.733L358.395 316.763C358.125 317.033 358.133 317.475 358.415 317.735L369.444 327.916C369.876 328.314 370.576 328.009 370.576 327.42V320.185H421.414C422.958 320.185 424.211 318.933 424.211 317.388V295.389C424.211 293.962 423.136 292.762 421.715 292.609Z" fill="#53C7B4"/>
</svg>
