<svg width="120" height="54" viewBox="0 0 120 54" fill="none" xmlns="http://www.w3.org/2000/svg">
<path d="M54.6962 16.34L179.655 53.4193" stroke="white" stroke-width="0.622279" stroke-miterlimit="10"/>
<path d="M47.1336 11.4413L55.7332 6.42499C56.2694 6.11231 56.9112 6.035 57.5061 6.21163L60.0555 6.96797L54.2371 15.193L47.1336 11.4413Z" fill="#336A89"/>
<path d="M45.3815 10.8078L11.2093 0.667831C11.2093 0.667831 6.48934 -0.732815 3.0492 3.24506C2.4731 4.03293 3.10237 4.21964 21.919 9.80321C38.0297 14.5838 43.19 16.115 43.19 16.115L53.9093 16.7424C55.4855 16.8346 55.9395 14.6261 54.4548 14.0893L45.3815 10.8078Z" fill="white"/>
<path opacity="0.41" d="M43.1904 16.115L53.9097 16.7424C55.1184 16.8134 55.6661 15.5314 55.1865 14.6874L42.562 13.4632L4.25274 2.09569C3.84112 2.41706 3.43675 2.79648 3.04918 3.24507C2.47307 4.03294 3.10233 4.21964 21.9194 9.80324C38.03 14.5839 43.1904 16.115 43.1904 16.115Z" fill="#6BA6BF"/>
<path d="M31.6995 14.5312L22.1355 11.6932C21.7641 11.5829 21.5528 11.1929 21.6627 10.8215L22.1229 9.27072C22.2329 8.89938 22.6233 8.68806 22.9942 8.798L32.5582 11.636C32.9296 11.7459 33.1409 12.1363 33.031 12.5076L32.5708 14.0585C32.4608 14.4298 32.0704 14.6411 31.6995 14.5312Z" fill="white"/>
<path d="M24.0423 9.1091L22.9942 8.79798C22.6233 8.68804 22.2329 8.89936 22.1229 9.2707L21.6627 10.8215C21.5524 11.1928 21.7641 11.5828 22.1354 11.6932L23.1836 12.0043L24.0423 9.1091Z" fill="#336A89"/>
<path d="M26.6068 5.23657L35.3988 3.76007L39.2163 4.89278L32.9838 7.129L26.6068 5.23657Z" fill="white"/>
<path d="M49.1395 14.1015L53.9177 17.6548L57.428 18.2853L53.5569 14.5297L49.1395 14.1015Z" fill="white"/>
<path d="M50.4074 16.5375L49.1395 14.1015L52.5869 16.6651L50.4074 16.5375Z" fill="#003764"/>
<path d="M23.0949 7.68677L25.9945 12.8384L30.2317 14.0956L23.0949 7.68677Z" fill="#003764"/>
<path d="M9.47274 2.33101C9.77939 2.42188 10.1015 2.24729 10.1928 1.94066C10.2836 1.634 10.109 1.31189 9.80238 1.22102L7.62708 0.575631C7.00862 0.692423 6.34985 0.890161 5.68591 1.20778L9.47274 2.33101Z" fill="#336A89"/>
<path d="M23.0949 7.68673L34.9015 18.3572L40.9012 20.1373L33.1301 10.6363L23.0949 7.68673Z" fill="white"/>
<path d="M16.9579 5.17869C16.6637 5.09137 16.4946 4.77932 16.5819 4.48505L16.6758 4.168C16.7631 3.87373 17.0752 3.70465 17.3694 3.79197C17.6637 3.8793 17.8328 4.19135 17.7455 4.48562L17.6512 4.80264C17.5643 5.09653 17.2518 5.26599 16.9579 5.17869Z" fill="#6BA6BF"/>
<path d="M19.6898 5.98911C19.3956 5.90179 19.2265 5.58974 19.3138 5.29546L19.4077 4.97842C19.495 4.68415 19.8071 4.51468 20.1013 4.60241C20.3956 4.68973 20.5647 5.00177 20.4774 5.29604L20.3835 5.61308C20.2957 5.90733 19.9841 6.07643 19.6898 5.98911Z" fill="#6BA6BF"/>
<path d="M22.4213 6.79978C22.127 6.71246 21.9579 6.4004 22.0453 6.10613L22.1392 5.7891C22.2265 5.49483 22.5386 5.32535 22.8328 5.41307C23.1271 5.5004 23.2962 5.81245 23.2088 6.10672L23.1149 6.42376C23.0281 6.71765 22.7156 6.8871 22.4213 6.79978Z" fill="#6BA6BF"/>
<path d="M25.1536 7.61069C24.8593 7.52337 24.6898 7.21129 24.7776 6.91704L24.8715 6.60001C24.9588 6.30574 25.2708 6.13666 25.5651 6.22398C25.8594 6.3113 26.0285 6.62336 25.9411 6.91763L25.8468 7.23465C25.7599 7.52854 25.4479 7.69801 25.1536 7.61069Z" fill="#6BA6BF"/>
<path d="M27.8855 8.42115C27.5912 8.33383 27.4222 8.02177 27.5091 7.72748L27.603 7.41044C27.6903 7.11617 28.0024 6.9471 28.2967 7.03401C28.5909 7.12134 28.76 7.43338 28.6727 7.72765L28.5788 8.04469C28.4919 8.33899 28.1798 8.50847 27.8855 8.42115Z" fill="#6BA6BF"/>
<path d="M30.6174 9.23169C30.3231 9.14437 30.1537 8.83229 30.241 8.53802L30.3349 8.22097C30.4222 7.9267 30.7343 7.75723 31.0285 7.84496C31.3228 7.93228 31.4919 8.24432 31.4046 8.53859L31.3107 8.85564C31.2237 9.14993 30.9113 9.31899 30.6174 9.23169Z" fill="#6BA6BF"/>
<path d="M33.3493 10.0421C33.0551 9.95476 32.886 9.64271 32.9733 9.34844L33.0672 9.03141C33.1545 8.73713 33.4666 8.56806 33.7608 8.65538C34.0551 8.7427 34.2242 9.05475 34.1369 9.34902L34.043 9.66607C33.9556 9.96034 33.6436 10.1294 33.3493 10.0421Z" fill="#6BA6BF"/>
<path d="M36.0812 10.8531C35.7869 10.7658 35.6178 10.4538 35.7052 10.1595L35.7991 9.84245C35.8864 9.54817 36.1985 9.37869 36.4927 9.46642C36.787 9.55374 36.9561 9.86579 36.8687 10.1601L36.7748 10.4771C36.6875 10.771 36.3755 10.9404 36.0812 10.8531Z" fill="#6BA6BF"/>
<path d="M38.8131 11.6637C38.5188 11.5763 38.3497 11.2643 38.4371 10.97L38.5309 10.653C38.6183 10.3587 38.9303 10.1896 39.2246 10.2769C39.5189 10.3643 39.6884 10.6763 39.601 10.9706L39.5071 11.2877C39.4194 11.5819 39.1069 11.751 38.8131 11.6637Z" fill="#6BA6BF"/>
<path d="M41.545 12.4741C41.2507 12.3868 41.0816 12.0747 41.169 11.7804L41.2629 11.4634C41.3502 11.1691 41.6622 11.0001 41.9565 11.0874C42.2508 11.1747 42.4198 11.4868 42.3325 11.781L42.2386 12.0981C42.1513 12.3923 41.8393 12.5614 41.545 12.4741Z" fill="#6BA6BF"/>
</svg>
