<svg width="16" height="19" viewBox="0 0 16 19" fill="none" xmlns="http://www.w3.org/2000/svg">
<path d="M8.63919 3.83857C8.57966 3.83922 8.52059 3.82813 8.46534 3.80595C8.4101 3.78376 8.35976 3.75091 8.31722 3.70927C8.27467 3.66763 8.24074 3.61801 8.21737 3.56326C8.19399 3.50851 8.18163 3.44968 8.181 3.39015C8.181 1.65512 9.6179 0.24998 11.3871 0.24998C11.4467 0.249173 11.5059 0.26015 11.5612 0.282279C11.6165 0.304407 11.6669 0.337252 11.7095 0.378924C11.7521 0.420597 11.786 0.470275 11.8093 0.525102C11.8326 0.579929 11.8449 0.638825 11.8453 0.698402C11.8453 2.43344 10.4097 3.83857 8.63919 3.83857ZM15.3289 13.2848C15.506 13.4143 15.5635 13.6513 15.4633 13.8444C13.8504 17.0041 12.5638 18.5778 11.3884 18.5778C10.841 18.5778 10.3034 18.4043 9.77919 18.0671C9.40296 17.8256 8.9673 17.6927 8.52031 17.6832C8.07332 17.6737 7.63241 17.788 7.24628 18.0133C6.61091 18.386 6.00609 18.5778 5.43182 18.5778C3.70289 18.5778 0.849854 13.3642 0.849854 10.5038C0.849854 7.44916 2.48592 5.1203 4.97362 5.1203C6.14416 5.1203 7.15464 5.28892 8.00383 5.63226C8.36305 5.77644 8.76993 5.76667 9.1206 5.60172C9.80973 5.2767 10.7188 5.1203 11.8453 5.1203C13.2224 5.1203 14.4235 5.79232 15.4205 7.0936C15.4566 7.14053 15.4828 7.19422 15.4978 7.25148C15.5127 7.30875 15.516 7.36843 15.5075 7.427C15.4989 7.48556 15.4787 7.54181 15.448 7.59242C15.4174 7.64303 15.3768 7.68697 15.3289 7.72164C14.2157 8.54028 13.6794 9.4579 13.6794 10.5038C13.6794 11.5485 14.2157 12.4673 15.3289 13.2848Z" fill="black"/>
<path d="M15.3291 13.2848C15.5063 13.4143 15.5637 13.6513 15.4635 13.8444C13.8507 17.0041 12.564 18.5778 11.3886 18.5778C10.8412 18.5778 10.3036 18.4043 9.77943 18.0671C9.40321 17.8256 8.96754 17.6927 8.52055 17.6832C8.07357 17.6737 7.63265 17.788 7.24652 18.0133C6.61115 18.386 6.00633 18.5778 5.43206 18.5778C3.70313 18.5778 0.850098 13.3642 0.850098 10.5038C0.850098 7.44916 2.48616 5.1203 4.97387 5.1203C6.1444 5.1203 7.15488 5.28892 8.00407 5.63226C8.3633 5.77644 8.77018 5.76666 9.12085 5.60171C9.80998 5.2767 10.719 5.1203 11.8456 5.1203C13.2226 5.1203 14.4237 5.79232 15.4207 7.0936C15.4568 7.14053 15.4831 7.19421 15.498 7.25148C15.513 7.30875 15.5163 7.36843 15.5077 7.42699C15.4992 7.48556 15.479 7.54181 15.4483 7.59242C15.4176 7.64303 15.3771 7.68697 15.3291 7.72163C14.216 8.54028 13.6796 9.45789 13.6796 10.5038C13.6796 11.5485 14.216 12.4673 15.3291 13.2848Z" fill="black"/>
</svg>
