<svg width="1200" height="620" viewBox="0 0 1200 620" fill="none" xmlns="http://www.w3.org/2000/svg">
<mask id="mask0_25_5133" style="mask-type:luminance" maskUnits="userSpaceOnUse" x="0" y="0" width="1200" height="800">
<path d="M1200 0H0V800H1200V0Z" fill="white"/>
</mask>
<g mask="url(#mask0_25_5133)">
<g opacity="0.5">
<path d="M1170.82 60.9727C1143.95 42.6319 1105.7 39.9887 1079.16 58.7871C1052.6 77.5855 1043.15 118.675 1062.57 144.776C1039.6 127.491 1002.45 134.203 986.989 158.432C970.768 147.261 948.171 146.181 930.958 155.752C913.746 165.323 902.741 185.091 903.674 204.763C891.406 181.774 861.582 169.888 836.866 178.137C812.149 186.387 795.445 213.805 799.446 239.553C753.267 229.697 702.002 258.369 686.224 302.875C670.446 347.381 692.21 401.939 734.285 423.369C704.088 457.094 708.635 515.848 743.659 544.526C778.685 573.205 837.181 566.067 864.283 529.808C853.747 555.947 863.904 587.512 884.552 606.694C905.198 625.877 934.387 633.861 962.57 633.613C1022.59 633.085 1080.71 595.267 1105.5 540.611C1097.58 558.086 1107.4 579.888 1123.6 590.176C1139.79 600.462 1160.38 601.266 1179.31 598.112C1232.92 589.176 1280.16 549.006 1297.59 497.52C1315.02 446.034 1301.89 385.433 1264.73 345.768C1303.96 304.193 1312.86 236.965 1285.8 186.614C1277.84 171.797 1265.94 158.377 1251.41 149.742C1241.04 143.577 1227.56 141.894 1219.47 132.361C1211.32 122.755 1209.02 107.901 1202.94 96.9631C1195.05 82.7807 1184.27 70.1519 1170.82 60.9727Z" fill="#E1F1FF"/>
<path d="M-94.0319 66.408C-67.1935 63.6736 -39.7231 82.1825 -32.1759 108.083C-30.2143 99.3392 -19.8719 93.5344 -11.3855 96.4144C-2.89912 99.2944 1.77287 110.197 -1.99353 118.328C17.9841 96.6192 52.5249 89.9296 79.1633 102.608C105.802 115.286 122.392 146.312 118.144 175.506C131.752 161.331 157.386 161.472 170.837 175.797C203.462 167.861 239.426 174.936 266.614 194.637C293.803 214.338 311.727 246.309 314.347 279.782C340.478 262.512 374.942 258.56 404.304 269.467C433.666 280.374 457.192 305.87 465.709 336.011C486.386 317.574 519.947 318.938 542.818 334.571C565.688 350.205 578.778 377.181 583.586 404.462C588.394 431.744 585.886 459.723 583.365 487.31C581.702 505.507 579.931 524.118 572.243 540.694C564.555 557.27 549.664 571.701 531.496 573.661C513.157 606.834 468.915 613.915 431.014 613.338C312.264 611.53 194.43 570.626 100.102 498.467C44.2465 525.824 -22.7759 529.429 -81.2431 508.221C-139.71 487.013 -188.837 441.278 -214.165 384.474C-217.989 390.962 -228.378 390.326 -233.766 385.066C-239.155 379.805 -240.773 371.874 -241.845 364.419C-250.238 306.021 -240.701 245.17 -214.843 192.141C-200.163 162.034 -180.73 138.926 -155.014 117.893C-145.032 109.728 -141.354 98.432 -133.464 88.6032C-123.792 76.5584 -109.522 67.9856 -94.0319 66.408Z" fill="#E1F1FF"/>
</g>
</g>
<mask id="mask1_25_5133" style="mask-type:luminance" maskUnits="userSpaceOnUse" x="0" y="0" width="1200" height="800">
<path d="M1200 0H0V800H1200V0Z" fill="white"/>
</mask>
<g mask="url(#mask1_25_5133)">
<path d="M534.192 123.414V105.734L505.486 77.0288H494.893V123.414H484.585V102.154H403.731V123.414H391.197V73.3232H385.64V123.414H358.344V133.078H361.585V762.435H547.413V133.078H550.654V123.414H534.192Z" fill="#CBE3F8"/>
<path d="M321.517 234.387H94.7551V762.435H321.517V234.387Z" fill="#CBE3F8"/>
<path d="M1178.02 762.435H1020.92V213.976L1178.02 313.85V762.435Z" fill="#CBE3F8"/>
<path d="M889.029 265.278H875.035V254.197H817.779V265.278H802.542V254.197H782.04V265.278H775.805V253.843H755.304V265.278H742.304V283.51H746.97V762.435H884.363V283.51H889.029V265.278Z" fill="#CBE3F8"/>
<path d="M1114.12 367.952H976.725V759.725H1114.12V367.952Z" fill="#A1C5EB"/>
<path d="M247.462 762.79H73.1152V415.52L247.462 302.88V762.79Z" fill="#A1C5EB"/>
<path d="M460.162 203.273H427.541V188.968H400.798V203.273H373.275L353.422 183.421H312.077V203.273H285.427V215.974H289.896V762.79H455.694V215.974H460.162V203.273Z" fill="#A1C5EB"/>
<path d="M321.056 268.934H314.502V245.2H321.056V268.934ZM344.437 245.2H337.883V268.934H344.437V245.2ZM367.816 245.2H361.262V268.934H367.816V245.2ZM391.197 245.2H384.643V268.934H391.197V245.2ZM437.957 245.2H431.403V268.934H437.957V245.2ZM344.437 279.146H337.883V302.88H344.437V279.146ZM414.578 279.146H408.024V302.88H414.578V279.146ZM437.957 279.146H431.403V302.88H437.957V279.146ZM321.056 313.09H314.502V336.824H321.056V313.09ZM344.437 313.09H337.883V336.824H344.437V313.09ZM391.197 313.09H384.643V336.824H391.197V313.09ZM414.578 313.09H408.024V336.824H414.578V313.09ZM344.437 347.035H337.883V370.77H344.437V347.035ZM367.816 347.035H361.262V370.77H367.816V347.035ZM391.197 347.035H384.643V370.77H391.197V347.035ZM437.957 347.035H431.403V370.77H437.957V347.035ZM321.056 380.981H314.502V404.715H321.056V380.981ZM344.437 380.981H337.883V404.715H344.437V380.981ZM367.816 380.981H361.262V404.715H367.816V380.981ZM414.578 380.981H408.024V404.715H414.578V380.981ZM437.957 380.981H431.403V404.715H437.957V380.981Z" fill="#CBE3F8"/>
<path d="M724.595 232.126H722.52L715.046 220.16V207.52H707.338V188.133H695.045L683.03 168.894H676.462V156.666H671.205V142.051H665.24V156.666H659.982V168.894H653.414L641.4 188.133H629.106V207.52H621.398V220.16L613.923 232.126H611.848V238.688H613.504V762.79H722.941V238.688H724.595V232.126Z" fill="#A1C5EB"/>
<path d="M697.912 269.869H688.731V260.688H697.912V269.869ZM697.912 281.707H688.731V290.888H697.912V281.707ZM697.912 309.008H688.731V318.189H697.912V309.008ZM677.403 260.689H668.222V269.87H677.403V260.689ZM677.403 281.707H668.222V290.888H677.403V281.707ZM656.893 260.689H647.712V269.87H656.893V260.689Z" fill="#CBE3F8"/>
<path d="M448.297 463.358H332.142V762.792H448.297V463.358Z" fill="#619AC9"/>
<path d="M259.419 475.33H-2.96643V762.79H259.419V475.33Z" fill="#619AC9"/>
<path d="M237.098 436.034H235.077H215.456H213.435H193.814H191.794H172.176H170.155H150.536H148.515H128.896H126.875H107.256H105.235H85.6144H83.5936H63.9744H61.9536H42.3344H40.3136H20.6928H18.672H-2.96643V476.344H18.672H20.6928H40.3136H42.3344H61.9536H63.9744H83.5936H85.6144H105.234H107.254H126.875H128.896H148.517H150.538H170.158H172.179H191.798H193.819H213.44H215.461H235.082H237.102H258.742V436.034H237.098ZM18.672 474.317H-0.945631V438.062H18.672V474.317ZM40.3136 474.317H20.6928V438.062H40.3136V474.317ZM61.9536 474.317H42.3344V438.062H61.9536V474.317ZM83.5936 474.317H63.9744V438.062H83.5936V474.317ZM105.235 474.317H85.6144V438.062H105.234L105.235 474.317ZM126.875 474.317H107.256V438.062H126.877L126.875 474.317ZM148.515 474.317H128.896V438.062H148.517L148.515 474.317ZM170.157 474.317H150.536V438.062H170.157V474.317ZM191.795 474.317H172.176V438.062H191.795V474.317ZM213.437 474.317H193.816V438.062H213.437V474.317ZM235.077 474.317H215.456V438.062H235.077V474.317ZM256.717 474.317H237.098V438.062H256.717V474.317Z" fill="#619AC9"/>
<path d="M14.7391 536.349H-9.09766V512.512H14.7391V536.349ZM51.4607 512.51H27.6239V536.347H51.4607V512.51ZM88.1823 512.51H64.3439V536.347H88.1807L88.1823 512.51ZM14.7391 550.522H-9.09766V574.358H14.7391V550.522ZM51.4607 550.522H27.6239V574.358H51.4607V550.522ZM88.1823 550.522H64.3439V574.358H88.1807L88.1823 550.522ZM14.7391 588.533H-9.09766V612.37H14.7391V588.533ZM51.4607 588.533H27.6239V612.37H51.4607V588.533ZM88.1823 588.533H64.3439V612.37H88.1807L88.1823 588.533Z" fill="#E1F1FF"/>
<path d="M859.589 361.938H799.632V325.678H790.809V361.938H782.318V350.691H727.592V361.938H708.288V377.288H714.085V762.79H853.792V377.288H859.589V361.938Z" fill="#619AC9"/>
<path d="M763.208 407.336H729.821V401.779H763.208V407.336ZM763.208 413.134H729.821V418.691H763.208V413.134ZM800.632 401.781H767.245V407.338H800.632V401.781ZM800.632 413.134H767.245V418.691H800.632V413.134ZM838.056 401.781H804.669V407.338H838.056V401.781ZM838.056 413.134H804.669V418.691H838.056V413.134ZM763.208 427.147H729.821V432.704H763.208V427.147ZM763.208 438.502H729.821V444.059H763.208V438.502ZM800.632 427.147H767.245V432.704H800.632V427.147ZM800.632 438.502H767.245V444.059H800.632V438.502ZM838.056 427.147H804.669V432.704H838.056V427.147ZM838.056 438.502H804.669V444.059H838.056V438.502ZM763.208 452.515H729.821V458.072H763.208V452.515ZM763.208 463.87H729.821V469.427H763.208V463.87ZM800.632 452.515H767.245V458.072H800.632V452.515ZM800.632 463.87H767.245V469.427H800.632V463.87ZM838.056 452.515H804.669V458.072H838.056V452.515ZM838.056 463.87H804.669V469.427H838.056V463.87ZM763.208 477.883H729.821V483.44H763.208V477.883ZM763.208 489.237H729.821V494.794H763.208V489.237ZM800.632 477.883H767.245V483.44H800.632V477.883ZM800.632 489.237H767.245V494.794H800.632V489.237ZM838.056 477.883H804.669V483.44H838.056V477.883ZM838.056 489.237H804.669V494.794H838.056V489.237Z" fill="#CBE3F8"/>
<path d="M1160.06 435.07V410.91H1087.23V435.07H1072.02V762.79H1207.34V435.07H1160.06Z" fill="#619AC9"/>
<path d="M1096.09 462.042H1088.15V454.102H1096.09V462.042ZM1109.68 454.102H1101.74V462.042H1109.68V454.102ZM1123.26 454.102H1115.32V462.042H1123.26V454.102ZM1136.85 454.102H1128.91V462.042H1136.85V454.102ZM1150.44 454.102H1142.5V462.042H1150.44V454.102ZM1164.03 454.102H1156.09V462.042H1164.03V454.102ZM1177.62 454.102H1169.68V462.042H1177.62V454.102ZM1191.2 454.102H1183.26V462.042H1191.2V454.102ZM1096.09 471.757H1088.15V479.696H1096.09V471.757ZM1109.68 471.757H1101.74V479.696H1109.68V471.757ZM1123.26 471.757H1115.32V479.696H1123.26V471.757ZM1136.85 471.757H1128.91V479.696H1136.85V471.757ZM1150.44 471.757H1142.5V479.696H1150.44V471.757ZM1164.03 471.757H1156.09V479.696H1164.03V471.757ZM1177.62 471.757H1169.68V479.696H1177.62V471.757ZM1191.2 471.757H1183.26V479.696H1191.2V471.757ZM1096.09 489.413H1088.15V497.352H1096.09V489.413ZM1109.68 489.413H1101.74V497.352H1109.68V489.413ZM1123.26 489.413H1115.32V497.352H1123.26V489.413ZM1136.85 489.413H1128.91V497.352H1136.85V489.413ZM1150.44 489.413H1142.5V497.352H1150.44V489.413ZM1164.03 489.413H1156.09V497.352H1164.03V489.413ZM1177.62 489.413H1169.68V497.352H1177.62V489.413ZM1191.2 489.413H1183.26V497.352H1191.2V489.413ZM1096.09 507.069H1088.15V515.008H1096.09V507.069ZM1109.68 507.069H1101.74V515.008H1109.68V507.069ZM1123.26 507.069H1115.32V515.008H1123.26V507.069ZM1136.85 507.069H1128.91V515.008H1136.85V507.069ZM1150.44 507.069H1142.5V515.008H1150.44V507.069ZM1164.03 507.069H1156.09V515.008H1164.03V507.069ZM1177.62 507.069H1169.68V515.008H1177.62V507.069ZM1191.2 507.069H1183.26V515.008H1191.2V507.069ZM1096.09 524.725H1088.15V532.664H1096.09V524.725ZM1109.68 524.725H1101.74V532.664H1109.68V524.725ZM1123.26 524.725H1115.32V532.664H1123.26V524.725ZM1136.85 524.725H1128.91V532.664H1136.85V524.725ZM1150.44 524.725H1142.5V532.664H1150.44V524.725ZM1164.03 524.725H1156.09V532.664H1164.03V524.725ZM1177.62 524.725H1169.68V532.664H1177.62V524.725ZM1191.2 524.725H1183.26V532.664H1191.2V524.725ZM1096.09 542.381H1088.15V550.32H1096.09V542.381ZM1109.68 542.381H1101.74V550.32H1109.68V542.381ZM1123.26 542.381H1115.32V550.32H1123.26V542.381ZM1136.85 542.381H1128.91V550.32H1136.85V542.381ZM1150.44 542.381H1142.5V550.32H1150.44V542.381ZM1164.03 542.381H1156.09V550.32H1164.03V542.381ZM1177.62 542.381H1169.68V550.32H1177.62V542.381ZM1191.2 542.381H1183.26V550.32H1191.2V542.381ZM1096.09 560.037H1088.15V567.976H1096.09V560.037ZM1109.68 560.037H1101.74V567.976H1109.68V560.037ZM1123.26 560.037H1115.32V567.976H1123.26V560.037ZM1136.85 560.037H1128.91V567.976H1136.85V560.037ZM1150.44 560.037H1142.5V567.976H1150.44V560.037ZM1164.03 560.037H1156.09V567.976H1164.03V560.037ZM1177.62 560.037H1169.68V567.976H1177.62V560.037ZM1191.2 560.037H1183.26V567.976H1191.2V560.037ZM1096.09 577.693H1088.15V585.632H1096.09V577.693ZM1109.68 577.693H1101.74V585.632H1109.68V577.693ZM1123.26 577.693H1115.32V585.632H1123.26V577.693ZM1136.85 577.693H1128.91V585.632H1136.85V577.693ZM1150.44 577.693H1142.5V585.632H1150.44V577.693ZM1164.03 577.693H1156.09V585.632H1164.03V577.693ZM1177.62 577.693H1169.68V585.632H1177.62V577.693ZM1191.2 577.693H1183.26V585.632H1191.2V577.693ZM1096.09 595.349H1088.15V603.288H1096.09V595.349ZM1109.68 595.349H1101.74V603.288H1109.68V595.349ZM1123.26 595.349H1115.32V603.288H1123.26V595.349ZM1136.85 595.349H1128.91V603.288H1136.85V595.349ZM1150.44 595.349H1142.5V603.288H1150.44V595.349ZM1164.03 595.349H1156.09V603.288H1164.03V595.349ZM1177.62 595.349H1169.68V603.288H1177.62V595.349ZM1191.2 595.349H1183.26V603.288H1191.2V595.349ZM1096.09 613.005H1088.15V620.944H1096.09V613.005ZM1109.68 613.005H1101.74V620.944H1109.68V613.005ZM1123.26 613.005H1115.32V620.944H1123.26V613.005ZM1136.85 613.005H1128.91V620.944H1136.85V613.005ZM1150.44 613.005H1142.5V620.944H1150.44V613.005ZM1164.03 613.005H1156.09V620.944H1164.03V613.005ZM1177.62 613.005H1169.68V620.944H1177.62V613.005ZM1191.2 613.005H1183.26V620.944H1191.2V613.005ZM1096.09 630.659H1088.15V638.598H1096.09V630.659ZM1109.68 630.659H1101.74V638.598H1109.68V630.659ZM1123.26 630.659H1115.32V638.598H1123.26V630.659ZM1136.85 630.659H1128.91V638.598H1136.85V630.659ZM1150.44 630.659H1142.5V638.598H1150.44V630.659ZM1164.03 630.659H1156.09V638.598H1164.03V630.659ZM1177.62 630.659H1169.68V638.598H1177.62V630.659ZM1191.2 630.659H1183.26V638.598H1191.2V630.659ZM1096.09 648.315H1088.15V656.254H1096.09V648.315ZM1109.68 648.315H1101.74V656.254H1109.68V648.315ZM1123.26 648.315H1115.32V656.254H1123.26V648.315ZM1136.85 648.315H1128.91V656.254H1136.85V648.315ZM1150.44 648.315H1142.5V656.254H1150.44V648.315ZM1164.03 648.315H1156.09V656.254H1164.03V648.315ZM1177.62 648.315H1169.68V656.254H1177.62V648.315ZM1191.2 648.315H1183.26V656.254H1191.2V648.315ZM1096.09 665.971H1088.15V673.91H1096.09V665.971ZM1109.68 665.971H1101.74V673.91H1109.68V665.971ZM1123.26 665.971H1115.32V673.91H1123.26V665.971ZM1136.85 665.971H1128.91V673.91H1136.85V665.971ZM1150.44 665.971H1142.5V673.91H1150.44V665.971ZM1164.03 665.971H1156.09V673.91H1164.03V665.971ZM1177.62 665.971H1169.68V673.91H1177.62V665.971ZM1191.2 665.971H1183.26V673.91H1191.2V665.971ZM1096.09 683.627H1088.15V691.566H1096.09V683.627ZM1109.68 683.627H1101.74V691.566H1109.68V683.627ZM1123.26 683.627H1115.32V691.566H1123.26V683.627ZM1136.85 683.627H1128.91V691.566H1136.85V683.627ZM1150.44 683.627H1142.5V691.566H1150.44V683.627ZM1164.03 683.627H1156.09V691.566H1164.03V683.627ZM1177.62 683.627H1169.68V691.566H1177.62V683.627ZM1191.2 683.627H1183.26V691.566H1191.2V683.627ZM1096.09 701.283H1088.15V709.222H1096.09V701.283ZM1109.68 701.283H1101.74V709.222H1109.68V701.283ZM1123.26 701.283H1115.32V709.222H1123.26V701.283ZM1136.85 701.283H1128.91V709.222H1136.85V701.283ZM1150.44 701.283H1142.5V709.222H1150.44V701.283ZM1164.03 701.283H1156.09V709.222H1164.03V701.283ZM1177.62 701.283H1169.68V709.222H1177.62V701.283ZM1191.2 701.283H1183.26V709.222H1191.2V701.283Z" fill="#CBE3F8"/>
<path d="M1014.16 292.286V279.078H1020.05V270.381H1014.16V265.043H1007.65V246.866H1004.5V233.094H1001.12V246.866H999.56L969.434 194.683V178.574H965.685V166.334H959.09V178.574H955.341V194.683L925.213 246.866H923.651V233.094H920.269V246.866H917.126V265.043H910.61V270.381H904.726V279.078H910.61V292.286H895.872V762.79H910.61H1014.16H1028.9V292.286H1014.16Z" fill="#619AC9"/>
<path d="M926.021 325.142H913.221V319.12H926.021V325.142ZM947.405 319.12H934.605V325.142H947.405V319.12ZM968.787 319.12H955.987V325.142H968.787V319.12ZM990.168 319.12H977.368V325.142H990.168V319.12ZM1011.55 319.12H998.75V325.142H1011.55V319.12ZM926.021 337.48H913.221V343.504H926.021V337.48ZM947.405 337.48H934.605V343.504H947.405V337.48ZM968.787 337.48H955.987V343.504H968.787V337.48ZM990.168 337.48H977.368V343.504H990.168V337.48ZM1011.55 337.48H998.75V343.504H1011.55V337.48ZM926.021 355.842H913.221V361.866H926.021V355.842ZM947.405 355.842H934.605V361.866H947.405V355.842ZM968.787 355.842H955.987V361.866H968.787V355.842ZM990.168 355.842H977.368V361.866H990.168V355.842ZM1011.55 355.842H998.75V361.866H1011.55V355.842ZM926.021 374.203H913.221V380.226H926.021V374.203ZM947.405 374.203H934.605V380.226H947.405V374.203ZM968.787 374.203H955.987V380.226H968.787V374.203ZM990.168 374.203H977.368V380.226H990.168V374.203ZM1011.55 374.203H998.75V380.226H1011.55V374.203ZM926.021 392.565H913.221V398.587H926.021V392.565ZM947.405 392.565H934.605V398.587H947.405V392.565ZM968.787 392.565H955.987V398.587H968.787V392.565ZM990.168 392.565H977.368V398.587H990.168V392.565ZM1011.55 392.565H998.75V398.587H1011.55V392.565ZM926.021 410.925H913.221V416.947H926.021V410.925ZM947.405 410.925H934.605V416.947H947.405V410.925ZM968.787 410.925H955.987V416.947H968.787V410.925ZM990.168 410.925H977.368V416.947H990.168V410.925ZM1011.55 410.925H998.75V416.947H1011.55V410.925ZM926.021 429.286H913.221V435.31H926.021V429.286ZM947.405 429.286H934.605V435.31H947.405V429.286ZM968.787 429.286H955.987V435.31H968.787V429.286ZM990.168 429.286H977.368V435.31H990.168V429.286ZM1011.55 429.286H998.75V435.31H1011.55V429.286ZM926.021 447.648H913.221V453.672H926.021V447.648ZM947.405 447.648H934.605V453.672H947.405V447.648ZM968.787 447.648H955.987V453.672H968.787V447.648ZM990.168 447.648H977.368V453.672H990.168V447.648ZM1011.55 447.648H998.75V453.672H1011.55V447.648ZM926.021 466.008H913.221V472.03H926.021V466.008ZM947.405 466.008H934.605V472.03H947.405V466.008ZM968.787 466.008H955.987V472.03H968.787V466.008ZM990.168 466.008H977.368V472.03H990.168V466.008ZM1011.55 466.008H998.75V472.03H1011.55V466.008ZM926.021 484.37H913.221V490.392H926.021V484.37ZM947.405 484.37H934.605V490.392H947.405V484.37ZM968.787 484.37H955.987V490.392H968.787V484.37ZM990.168 484.37H977.368V490.392H990.168V484.37ZM1011.55 484.37H998.75V490.392H1011.55V484.37ZM926.021 502.731H913.221V508.754H926.021V502.731ZM947.405 502.731H934.605V508.754H947.405V502.731ZM968.787 502.731H955.987V508.754H968.787V502.731ZM990.168 502.731H977.368V508.754H990.168V502.731ZM1011.55 502.731H998.75V508.754H1011.55V502.731ZM926.021 521.093H913.221V527.115H926.021V521.093ZM947.405 521.093H934.605V527.115H947.405V521.093ZM968.787 521.093H955.987V527.115H968.787V521.093ZM990.168 521.093H977.368V527.115H990.168V521.093ZM1011.55 521.093H998.75V527.115H1011.55V521.093ZM926.021 539.454H913.221V545.477H926.021V539.454ZM947.405 539.454H934.605V545.477H947.405V539.454ZM968.787 539.454H955.987V545.477H968.787V539.454ZM990.168 539.454H977.368V545.477H990.168V539.454ZM1011.55 539.454H998.75V545.477H1011.55V539.454ZM926.021 557.814H913.221V563.838H926.021V557.814ZM947.405 557.814H934.605V563.838H947.405V557.814ZM968.787 557.814H955.987V563.838H968.787V557.814ZM990.168 557.814H977.368V563.838H990.168V557.814ZM1011.55 557.814H998.75V563.838H1011.55V557.814ZM926.021 576.176H913.221V582.2H926.021V576.176ZM947.405 576.176H934.605V582.2H947.405V576.176ZM968.787 576.176H955.987V582.2H968.787V576.176ZM990.168 576.176H977.368V582.2H990.168V576.176ZM1011.55 576.176H998.75V582.2H1011.55V576.176ZM926.021 594.538H913.221V600.56H926.021V594.538ZM947.405 594.538H934.605V600.56H947.405V594.538ZM968.787 594.538H955.987V600.56H968.787V594.538ZM990.168 594.538H977.368V600.56H990.168V594.538ZM1011.55 594.538H998.75V600.56H1011.55V594.538ZM926.021 612.898H913.221V618.92H926.021V612.898ZM947.405 612.898H934.605V618.92H947.405V612.898ZM968.787 612.898H955.987V618.92H968.787V612.898ZM990.168 612.898H977.368V618.92H990.168V612.898ZM1011.55 612.898H998.75V618.92H1011.55V612.898Z" fill="#CBE3F8"/>
<path d="M567.437 200.563H506.99V248.49H498.075V282.662H506.99V762.79H663.976V312.299L567.437 200.563Z" fill="#619AC9"/>
<path d="M556.155 762.224H538.672V311.733H556.155V762.224ZM594.259 311.733H576.776V762.224H594.259V311.733ZM632.363 311.733H614.88V762.224H632.363V311.733Z" fill="#CBE3F8"/>
</g>
<mask id="mask2_25_5133" style="mask-type:luminance" maskUnits="userSpaceOnUse" x="0" y="0" width="1200" height="800">
<path d="M1200 0H0V800H1200V0Z" fill="white"/>
</mask>
<g mask="url(#mask2_25_5133)">
<path d="M1259.71 111.301C1250.28 102.322 1236.55 98.8607 1223.56 99.7535C1210.57 100.645 1198.17 105.472 1186.5 111.243C1194.21 101.026 1194.74 85.9359 1187.76 75.2015C1180.77 64.4687 1166.77 58.8367 1154.3 61.7519C1155.46 40.4383 1137.9 20.7839 1117.07 16.1279C1096.23 11.4719 1073.89 19.9967 1058.5 34.7887C1042.23 50.4335 1033.21 73.0751 1033.34 95.5919C1023.57 91.3615 1011.73 91.7631 1002.77 97.4991C988.682 106.514 985.123 128.378 995.624 141.394C1006.12 154.41 1028.25 155.555 1040.04 143.696C1033.48 149.203 1032.5 159.515 1036.18 167.245C1039.86 174.974 1047.26 180.363 1055.1 183.782C1081.68 195.357 1115.91 185.043 1131.67 160.712C1134.47 172.507 1146.33 181.461 1158.44 180.918C1170.54 180.376 1181.56 170.397 1183.28 158.4C1198.22 164.821 1214.7 167.587 1230.91 166.389C1245.31 165.325 1261.03 159.909 1267.42 146.963C1273.19 135.291 1269.13 120.28 1259.71 111.301Z" fill="white"/>
<path d="M140.902 140.207C136.272 130.216 126.99 123.075 117.09 118.258C98.2912 109.112 76.1168 107.512 56.016 113.131C63.616 100.949 65.7232 85.2641 60.8368 71.7041C54.456 53.9937 36.5872 41.0609 17.7696 40.5345C8.23678 40.2673 -1.39042 42.9921 -9.25442 48.3889C-20.712 56.2529 -28.0256 69.8353 -28.2816 83.7297C-28.5376 97.6241 -21.7312 111.467 -10.5696 119.749C-24.2064 110.823 -41.1216 107.034 -57.264 109.293C-65.4848 110.443 -74.7664 114.451 -76.4144 122.587C-77.5088 127.989 -74.6592 133.579 -70.5376 137.239C-66.4176 140.898 -61.1824 143.002 -56.0608 145.035C-66.2816 143.314 -77.08 141.642 -86.7648 145.333C-96.4496 149.023 -104.107 160.168 -100.205 169.77C-96.384 179.17 -84.6336 181.912 -74.5952 183.381C-61.3248 185.323 -47.6992 187.255 -34.608 184.333C-24.0944 181.987 -13.8816 175.787 -8.50082 166.719C-9.45282 172.066 -8.11842 177.936 -5.02242 182.488C-0.435219 189.234 7.31039 193.32 15.2704 195.101C23.2304 196.882 31.4928 196.602 39.64 196.203C47.12 195.837 54.9136 195.287 61.376 191.503C67.8384 187.719 72.4512 179.675 69.872 172.645C65.9632 170.861 62.056 169.079 58.1488 167.295C74.6704 173.506 92.2304 176.941 109.875 177.415C119.141 177.663 129.21 176.797 136.149 170.653C144.39 163.354 145.533 150.197 140.902 140.207Z" fill="white"/>
</g>
<path d="M441.622 591.488H314.585V595.093H441.622V591.488Z" fill="#CBE3F8"/>
<path d="M441.623 602.093H314.586V605.698H441.623V602.093Z" fill="#CBE3F8"/>
<path d="M441.623 612.698H314.586V616.302H441.623V612.698Z" fill="#CBE3F8"/>
<path d="M953.098 628.322C950.066 623.805 943.64 622.658 938.421 624.197C933.203 625.736 928.904 629.371 924.774 632.914C929.79 627.192 933.046 619.947 933.995 612.398C934.379 609.338 934.376 606.136 933.21 603.282C932.043 600.426 929.522 597.978 926.462 597.59C924.2 597.302 921.779 598.426 920.546 600.27C923.45 591.917 922.522 582.275 917.891 574.725C915.47 570.778 911.234 567.11 906.704 568.074C902.862 568.891 900.45 572.709 899.104 576.397C895.978 584.968 896.312 594.747 900.018 603.085C897.192 598.08 892.192 594.354 886.589 593.078C882.672 592.187 878.006 592.714 875.518 595.867C873.354 598.611 873.458 602.478 873.982 605.934C875.41 615.307 879.294 624.259 885.014 631.814C880.71 631.122 876.275 631.883 872.973 634.658C869.715 637.395 868.016 641.728 868.003 645.984C867.99 650.24 869.542 654.402 871.88 657.958C876.541 665.046 884.246 669.813 892.459 671.938C900.672 674.062 909.37 673.717 917.698 672.106C927.006 670.304 936.195 666.829 943.374 660.635C950.554 654.442 955.507 645.262 955.165 635.787C955.074 633.171 954.555 630.493 953.098 628.322Z" fill="#3A739B"/>
<path d="M910.879 608.301L907.671 608.349L900.691 730.043L921.565 729.725L910.879 608.301Z" fill="#245472"/>
<path d="M131.921 617.51C126.302 615.293 119.797 616.467 114.43 619.242C109.064 622.016 104.613 626.243 100.24 630.413C105.493 618.128 110.747 605.842 116 593.557C117.385 590.317 118.792 586.989 118.953 583.469C119.115 579.949 117.773 576.138 114.753 574.318C111.453 572.33 107.027 573.256 103.918 575.533C100.809 577.81 98.7262 581.187 96.7214 584.478C100.638 572.608 101.843 559.851 100.221 547.456C99.2398 539.96 96.6446 531.802 90.027 528.146C82.139 523.786 71.5758 528.219 66.7022 535.8C61.8286 543.381 61.4862 553.026 62.6302 561.965C63.7726 570.906 66.2366 579.701 66.4142 588.712C65.0926 585.355 62.8206 582.274 59.6638 580.525C56.507 578.776 52.4142 578.542 49.3342 580.421C43.6926 583.859 43.715 592.003 45.1054 598.462C47.819 611.062 53.1534 623.09 60.6702 633.56C53.1294 624.498 37.8078 624.029 29.043 631.914C20.2798 639.798 18.7838 654.166 24.8558 664.272C34.219 679.851 54.2718 685.186 70.9422 688.05C95.4846 692.266 120.613 681.365 134.712 660.586C139.368 653.725 143.32 645.998 143.597 637.712C143.87 629.426 139.633 620.554 131.921 617.51Z" fill="#3A739B"/>
<path d="M84.4942 566.458L80.315 566.522L71.2174 725.122L98.4222 724.707L84.4942 566.458Z" fill="#245472"/>
<path d="M237.722 90.767L21 141.932" stroke="white" stroke-width="1.0631" stroke-miterlimit="10"/>
<path d="M251.095 83.1426L236.912 73.7551C236.027 73.1699 234.94 72.976 233.908 73.2198L229.487 74.2634L238.616 88.8549L251.095 83.1426Z" fill="#336A89"/>
<path d="M254.144 82.2313L313.411 68.2394C313.411 68.2394 321.597 66.3067 327.08 73.4241C327.986 74.8237 326.895 75.0813 294.261 82.786C266.319 89.3827 257.369 91.4955 257.369 91.4955L239.025 91.5294C236.328 91.5342 235.767 87.7234 238.351 86.9513L254.144 82.2313Z" fill="white"/>
<path opacity="0.41" d="M257.369 91.4954L239.024 91.5293C236.956 91.5335 236.146 89.294 237.045 87.9007L258.697 87.033L325.138 71.3473C325.809 71.9352 326.462 72.6215 327.08 73.4241C327.986 74.8236 326.895 75.0812 294.26 82.7859C266.318 89.3826 257.369 91.4954 257.369 91.4954Z" fill="#6BA6BF"/>
<path d="M277.121 89.9049L293.709 85.9888C294.353 85.8365 294.751 85.1917 294.599 84.5477L293.964 81.8581C293.813 81.214 293.167 80.8159 292.524 80.9675L275.936 84.8836C275.292 85.0352 274.894 85.6806 275.046 86.3247L275.681 89.0143C275.833 89.6583 276.478 90.0565 277.121 89.9049Z" fill="white"/>
<path d="M290.706 81.3969L292.524 80.9675C293.167 80.8159 293.812 81.214 293.964 81.8581L294.599 84.5477C294.751 85.1917 294.353 85.8365 293.709 85.9888L291.891 86.4182L290.706 81.3969Z" fill="#336A89"/>
<path d="M286.706 74.5438L271.853 71.1755L265.232 72.7385L275.646 77.1552L286.706 74.5438Z" fill="white"/>
<path d="M247.416 87.486L238.923 93.0848L232.874 93.8209L239.84 87.7893L247.416 87.486Z" fill="white"/>
<path d="M245.018 91.5184L247.416 87.486L241.288 91.5253L245.018 91.5184Z" fill="#003764"/>
<path d="M292.459 79.0624L287.016 87.569L279.667 89.3037L292.459 79.0624Z" fill="#003764"/>
<path d="M316.212 71.2441C315.68 71.3695 315.148 71.0406 315.022 70.5087C314.896 69.9769 315.225 69.4443 315.757 69.319L319.53 68.4285C320.573 68.6875 321.678 69.0884 322.78 69.6943L316.212 71.2441Z" fill="#336A89"/>
<path d="M292.459 79.0624L271.29 96.1213L260.884 98.5776L275.058 83.1232L292.459 79.0624Z" fill="white"/>
<path d="M303.169 75.3777C303.68 75.2572 303.998 74.7413 303.878 74.2309L303.748 73.6811C303.628 73.1707 303.112 72.8521 302.602 72.9726C302.091 73.0931 301.773 73.609 301.893 74.1194L302.023 74.6692C302.143 75.1789 302.66 75.4982 303.169 75.3777Z" fill="#6BA6BF"/>
<path d="M298.431 76.496C298.942 76.3755 299.26 75.8596 299.14 75.3493L299.01 74.7994C298.89 74.289 298.374 73.9698 297.864 74.091C297.353 74.2115 297.035 74.7274 297.155 75.2378L297.285 75.7876C297.406 76.298 297.921 76.6165 298.431 76.496Z" fill="#6BA6BF"/>
<path d="M293.694 77.6144C294.204 77.4939 294.523 76.978 294.403 76.4677L294.273 75.9178C294.153 75.4075 293.637 75.0882 293.126 75.2094C292.616 75.3299 292.297 75.8458 292.418 76.3562L292.547 76.906C292.667 77.4157 293.184 77.7349 293.694 77.6144Z" fill="#6BA6BF"/>
<path d="M288.955 78.7335C289.466 78.613 289.785 78.0971 289.664 77.5867L289.534 77.0369C289.414 76.5265 288.898 76.208 288.387 76.3285C287.877 76.449 287.559 76.9649 287.679 77.4752L287.809 78.0251C287.929 78.5348 288.445 78.854 288.955 78.7335Z" fill="#6BA6BF"/>
<path d="M284.217 79.8518C284.728 79.7314 285.046 79.2154 284.926 78.7051L284.797 78.1552C284.676 77.6449 284.16 77.3263 283.65 77.4461C283.14 77.5666 282.821 78.0825 282.942 78.5929L283.071 79.1427C283.191 79.6531 283.707 79.9723 284.217 79.8518Z" fill="#6BA6BF"/>
<path d="M279.479 80.9703C279.99 80.8498 280.309 80.3339 280.188 79.8235L280.059 79.2737C279.938 78.7633 279.423 78.4441 278.912 78.5653C278.402 78.6857 278.083 79.2016 278.204 79.712L278.333 80.2619C278.453 80.7722 278.97 81.0908 279.479 80.9703Z" fill="#6BA6BF"/>
<path d="M274.741 82.0886C275.252 81.9681 275.57 81.4522 275.45 80.9418L275.32 80.392C275.2 79.8816 274.684 79.5631 274.173 79.6836C273.663 79.8041 273.344 80.32 273.465 80.8303L273.594 81.3802C273.715 81.8906 274.231 82.2091 274.741 82.0886Z" fill="#6BA6BF"/>
<path d="M270.003 83.2077C270.514 83.0872 270.832 82.5713 270.712 82.061L270.582 81.5111C270.462 81.0007 269.946 80.6815 269.435 80.8027C268.925 80.9232 268.606 81.4391 268.727 81.9495L268.856 82.4993C268.977 83.009 269.493 83.3282 270.003 83.2077Z" fill="#6BA6BF"/>
<path d="M265.265 84.326C265.775 84.2055 266.094 83.6896 265.973 83.1793L265.844 82.6294C265.724 82.119 265.208 81.8005 264.697 81.921C264.187 82.0415 263.868 82.5574 263.988 83.0678L264.118 83.6176C264.239 84.128 264.755 84.4465 265.265 84.326Z" fill="#6BA6BF"/>
<path d="M260.527 85.4444C261.037 85.3239 261.356 84.808 261.235 84.2977L261.106 83.7478C260.985 83.2374 260.47 82.9189 259.959 83.0394C259.449 83.1599 259.13 83.6758 259.251 84.1862L259.38 84.736C259.501 85.2464 260.017 85.5649 260.527 85.4444Z" fill="#6BA6BF"/>
</svg>
