<svg width="16" height="17" viewBox="0 0 16 17" fill="none" xmlns="http://www.w3.org/2000/svg">
<path d="M15.333 7.337C15.1561 7.337 14.9864 7.40727 14.8614 7.53236C14.7363 7.65745 14.666 7.8271 14.666 8.004C14.6714 9.55496 14.138 11.0597 13.1569 12.2609C12.1759 13.4621 10.808 14.2854 9.28724 14.5898C7.76645 14.8943 6.18712 14.6611 4.8192 13.9302C3.45128 13.1993 2.37969 12.0159 1.78759 10.5824C1.19548 9.1489 1.11963 7.55426 1.573 6.07104C2.02637 4.58781 2.9808 3.30809 4.27317 2.4506C5.56554 1.59312 7.11561 1.21111 8.65843 1.36987C10.2012 1.52862 11.641 2.21829 12.7317 3.32099C12.7098 3.32698 12.6875 3.33165 12.665 3.335H10.664C10.4871 3.335 10.3174 3.40527 10.1924 3.53036C10.0673 3.65545 9.997 3.8251 9.997 4.002C9.997 4.1789 10.0673 4.34855 10.1924 4.47364C10.3174 4.59873 10.4871 4.669 10.664 4.669H12.665C13.1957 4.669 13.7047 4.45818 14.0799 4.08292C14.4552 3.70766 14.666 3.1987 14.666 2.668V0.667C14.666 0.490101 14.5957 0.320447 14.4706 0.19536C14.3456 0.070273 14.1759 0 13.999 0C13.8221 0 13.6524 0.070273 13.5274 0.19536C13.4023 0.320447 13.332 0.490101 13.332 0.667V2.04435C11.9663 0.823432 10.2231 0.108165 8.39343 0.0180774C6.5638 -0.0720101 4.75868 0.468539 3.27969 1.5494C1.80071 2.63026 0.737461 4.18595 0.26762 5.95651C-0.202221 7.72708 -0.0501929 9.60526 0.698301 11.2772C1.44679 12.9492 2.74641 14.3136 4.37998 15.1425C6.01355 15.9714 7.88211 16.2146 9.67343 15.8314C11.4648 15.4482 13.0703 14.4619 14.2218 13.0372C15.3733 11.6125 16.001 9.83584 16 8.004C16 7.8271 15.9297 7.65745 15.8046 7.53236C15.6796 7.40727 15.5099 7.337 15.333 7.337Z" fill="white"/>
<path d="M7.99604 4.00201C7.81914 4.00201 7.64949 4.07229 7.5244 4.19737C7.39931 4.32246 7.32904 4.49211 7.32904 4.66901V8.00401C7.32908 8.1809 7.39938 8.35052 7.52447 8.47558L9.52547 10.4766C9.65127 10.5981 9.81975 10.6653 9.99464 10.6638C10.1695 10.6623 10.3368 10.5921 10.4605 10.4685C10.5842 10.3448 10.6543 10.1775 10.6558 10.0026C10.6573 9.82773 10.5901 9.65924 10.4686 9.53344L8.66304 7.72788V4.66901C8.66304 4.49211 8.59277 4.32246 8.46768 4.19737C8.34259 4.07229 8.17294 4.00201 7.99604 4.00201Z" fill="white"/>
</svg>
