<svg width="10" height="10" viewBox="0 0 10 10" fill="none" xmlns="http://www.w3.org/2000/svg">
<g clip-path="url(#clip0_38_6922)">
<path d="M5 0C4.0111 0 3.0444 0.293245 2.22215 0.842652C1.39991 1.39206 0.759043 2.17295 0.380605 3.08658C0.00216643 4.00021 -0.0968503 5.00555 0.0960758 5.97545C0.289002 6.94536 0.765206 7.83627 1.46447 8.53553C2.16373 9.2348 3.05465 9.711 4.02455 9.90393C4.99446 10.0969 5.99979 9.99784 6.91342 9.6194C7.82705 9.24096 8.60794 8.6001 9.15735 7.77785C9.70676 6.95561 10 5.98891 10 5C9.99857 3.67436 9.47132 2.40342 8.53395 1.46605C7.59658 0.528678 6.32564 0.00143378 5 0ZM5.41667 4.94958C5.41671 5.02021 5.3988 5.0897 5.36462 5.1515C5.33044 5.21331 5.2811 5.26541 5.22125 5.30292L3.62125 6.30292C3.57474 6.33197 3.52297 6.35158 3.46888 6.36063C3.41479 6.36967 3.35945 6.36797 3.30602 6.35563C3.25258 6.34329 3.20211 6.32054 3.15746 6.28869C3.11282 6.25684 3.07489 6.21651 3.04584 6.17C3.01678 6.12349 2.99717 6.07171 2.98813 6.01762C2.97908 5.96354 2.98078 5.9082 2.99312 5.85476C3.00546 5.80133 3.02821 5.75085 3.06006 5.70621C3.09191 5.66157 3.13224 5.62364 3.17875 5.59458L4.58334 4.71875V2.91667C4.58334 2.80616 4.62723 2.70018 4.70537 2.62204C4.78351 2.5439 4.8895 2.5 5 2.5C5.11051 2.5 5.21649 2.5439 5.29463 2.62204C5.37277 2.70018 5.41667 2.80616 5.41667 2.91667V4.94958Z" fill="#6FB590"/>
</g>
<defs>
<clipPath id="clip0_38_6922">
<rect width="10" height="10" fill="white"/>
</clipPath>
</defs>
</svg>
