<svg width="16" height="15" viewBox="0 0 16 15" fill="none" xmlns="http://www.w3.org/2000/svg">
<path d="M7.98911 2.67859C5.55359 2.67859 3.05526 4.08822 1.08846 6.90747C1.03232 6.98883 1.00156 7.085 1.00006 7.18384C0.998556 7.28267 1.02638 7.37974 1.08003 7.46276C2.59121 9.82829 5.05611 11.6782 7.98911 11.6782C10.8902 11.6782 13.4058 9.82266 14.9198 7.45182C14.9721 7.37043 15 7.27567 15 7.17887C15 7.08207 14.9721 6.98731 14.9198 6.90591C13.4023 4.56226 10.8684 2.67859 7.98911 2.67859Z" stroke="#19657C" stroke-opacity="0.8" stroke-width="0.928532" stroke-linecap="round" stroke-linejoin="round"/>
<path d="M7.99941 9.67829C9.38006 9.67829 10.4993 8.55905 10.4993 7.17839C10.4993 5.79774 9.38006 4.6785 7.99941 4.6785C6.61875 4.6785 5.49951 5.79774 5.49951 7.17839C5.49951 8.55905 6.61875 9.67829 7.99941 9.67829Z" stroke="#19657C" stroke-opacity="0.8" stroke-width="0.928532" stroke-miterlimit="10"/>
<path d="M15 14C11 9.48401 3 0.564922 3 1.01652" stroke="#19657C"/>
</svg>
