<svg width="16" height="11" viewBox="0 0 16 11" fill="none" xmlns="http://www.w3.org/2000/svg">
<path d="M7.98911 0.678589C5.55359 0.678589 3.05526 2.08822 1.08846 4.90747C1.03232 4.98883 1.00156 5.085 1.00006 5.18384C0.998556 5.28267 1.02638 5.37974 1.08003 5.46276C2.59121 7.82829 5.05611 9.67821 7.98911 9.67821C10.8902 9.67821 13.4058 7.82266 14.9198 5.45182C14.9721 5.37043 15 5.27567 15 5.17887C15 5.08207 14.9721 4.98731 14.9198 4.90591C13.4023 2.56226 10.8684 0.678589 7.98911 0.678589Z" stroke="#19657C" stroke-opacity="0.8" stroke-width="0.928532" stroke-linecap="round" stroke-linejoin="round"/>
<path d="M7.99941 7.67826C9.38006 7.67826 10.4993 6.55901 10.4993 5.17836C10.4993 3.79771 9.38006 2.67847 7.99941 2.67847C6.61875 2.67847 5.49951 3.79771 5.49951 5.17836C5.49951 6.55901 6.61875 7.67826 7.99941 7.67826Z" stroke="#19657C" stroke-opacity="0.8" stroke-width="0.928532" stroke-miterlimit="10"/>
</svg>
