<svg width="19" height="20" viewBox="0 0 19 20" fill="none" xmlns="http://www.w3.org/2000/svg">
<path fill-rule="evenodd" clip-rule="evenodd" d="M18.62 9.96589C18.62 9.29225 18.5595 8.64452 18.4473 8.02271H9.5V11.6975H14.6127C14.3925 12.885 13.7232 13.8911 12.717 14.5647V16.9484H15.7873C17.5836 15.2945 18.62 12.8591 18.62 9.96589Z" fill="#4285F4"/>
<path fill-rule="evenodd" clip-rule="evenodd" d="M9.50004 19.2498C12.065 19.2498 14.2155 18.3991 15.7873 16.9482L12.7171 14.5646C11.8664 15.1346 10.7782 15.4714 9.50004 15.4714C7.02573 15.4714 4.93141 13.8003 4.18436 11.5548H1.0105V14.0162C2.57368 17.1209 5.78641 19.2498 9.50004 19.2498Z" fill="#34A853"/>
<path fill-rule="evenodd" clip-rule="evenodd" d="M4.18432 11.5549C3.99432 10.9849 3.88636 10.3761 3.88636 9.74995C3.88636 9.12381 3.99432 8.51495 4.18432 7.94495V5.48358H1.01045C0.367045 6.76608 0 8.21699 0 9.74995C0 11.2829 0.367045 12.7338 1.01045 14.0163L4.18432 11.5549Z" fill="#FBBC05"/>
<path fill-rule="evenodd" clip-rule="evenodd" d="M9.50004 4.02835C10.8948 4.02835 12.1471 4.50767 13.1316 5.44903L15.8564 2.72426C14.2112 1.1913 12.0607 0.249939 9.50004 0.249939C5.78641 0.249939 2.57368 2.3788 1.0105 5.48357L4.18436 7.94494C4.93141 5.69948 7.02573 4.02835 9.50004 4.02835Z" fill="#EA4335"/>
</svg>
