<svg width="11" height="11" viewBox="0 0 11 11" fill="none" xmlns="http://www.w3.org/2000/svg">
<g clip-path="url(#clip0_38_6920)">
<path d="M10.5416 5.04168C10.42 5.04168 10.3034 4.99339 10.2175 4.90744C10.1315 4.82148 10.0832 4.7049 10.0832 4.58335C10.0823 3.61118 9.69563 2.67912 9.00821 1.99169C8.32079 1.30427 7.38872 0.917651 6.41656 0.91668C6.295 0.91668 6.17842 0.868391 6.09247 0.782437C6.00651 0.696483 5.95822 0.579904 5.95822 0.458346C5.95822 0.336789 6.00651 0.22021 6.09247 0.134256C6.17842 0.0483016 6.295 1.30563e-05 6.41656 1.30563e-05C7.63172 0.00134754 8.79674 0.484662 9.65599 1.34391C10.5152 2.20317 10.9986 3.36818 10.9999 4.58335C10.9999 4.7049 10.9516 4.82148 10.8656 4.90744C10.7797 4.99339 10.6631 5.04168 10.5416 5.04168ZM9.16656 4.58335C9.16656 3.854 8.87683 3.15453 8.3611 2.6388C7.84538 2.12308 7.1459 1.83335 6.41656 1.83335C6.295 1.83335 6.17842 1.88163 6.09247 1.96759C6.00651 2.05354 5.95822 2.17012 5.95822 2.29168C5.95822 2.41324 6.00651 2.52982 6.09247 2.61577C6.17842 2.70172 6.295 2.75001 6.41656 2.75001C6.90279 2.75001 7.3691 2.94317 7.71292 3.28698C8.05674 3.6308 8.24989 4.09712 8.24989 4.58335C8.24989 4.7049 8.29818 4.82148 8.38413 4.90744C8.47009 4.99339 8.58667 5.04168 8.70823 5.04168C8.82978 5.04168 8.94636 4.99339 9.03232 4.90744C9.11827 4.82148 9.16656 4.7049 9.16656 4.58335ZM10.1671 10.1585L10.5842 9.67772C10.8497 9.4114 10.9987 9.0507 10.9987 8.67466C10.9987 8.29862 10.8497 7.93792 10.5842 7.6716C10.57 7.65739 9.46723 6.80901 9.46723 6.80901C9.20256 6.55708 8.85101 6.4168 8.48561 6.41731C8.12021 6.41782 7.76906 6.55909 7.5051 6.81176L6.63152 7.54785C5.91843 7.25272 5.27067 6.81964 4.72544 6.27346C4.18021 5.72728 3.74824 5.07877 3.45435 4.36518L4.18768 3.49435C4.44055 3.23043 4.58199 2.87921 4.58258 2.5137C4.58318 2.14819 4.4429 1.79651 4.19089 1.53176C4.19089 1.53176 3.3416 0.430388 3.32739 0.41618C3.06589 0.152981 2.71134 0.00323148 2.34034 -0.000713501C1.96934 -0.00465848 1.61168 0.137518 1.34464 0.395096L0.817558 0.85343C-2.29636 4.46601 4.40906 11.1196 8.14081 11C8.51764 11.0022 8.89109 10.9289 9.23912 10.7843C9.58714 10.6398 9.90268 10.427 10.1671 10.1585Z" fill="#6FB590"/>
</g>
<defs>
<clipPath id="clip0_38_6920">
<rect width="11" height="11" fill="white"/>
</clipPath>
</defs>
</svg>
