<svg width="10" height="12" viewBox="0 0 10 12" fill="none" xmlns="http://www.w3.org/2000/svg">
<path d="M5 0C3.67445 0.00145554 2.4036 0.527637 1.46625 1.46311C0.528902 2.39859 0.00159113 3.66697 0 4.98999C0 6.27499 0.996894 8.28599 2.96313 10.967C3.1972 11.287 3.50368 11.5474 3.85763 11.7269C4.21158 11.9064 4.60298 12 5 12C5.39702 12 5.78842 11.9064 6.14237 11.7269C6.49631 11.5474 6.80279 11.287 7.03687 10.967C9.00311 8.28599 10 6.27499 10 4.98999C9.99841 3.66697 9.4711 2.39859 8.53375 1.46311C7.59639 0.527637 6.32555 0.00145554 5 0ZM5 6.97899C4.60368 6.97899 4.21627 6.86169 3.88674 6.64193C3.55722 6.42217 3.30039 6.10981 3.14872 5.74436C2.99706 5.37891 2.95738 4.97677 3.03469 4.58881C3.11201 4.20085 3.30286 3.84449 3.58309 3.56478C3.86333 3.28508 4.22038 3.09459 4.60908 3.01742C4.99778 2.94025 5.40068 2.97986 5.76682 3.13124C6.13297 3.28261 6.44592 3.53896 6.6661 3.86785C6.88629 4.19675 7.00381 4.58343 7.00381 4.97899C7.00381 5.50942 6.79269 6.01813 6.41691 6.3932C6.04112 6.76828 5.53144 6.97899 5 6.97899Z" fill="#6FB590"/>
</svg>
