<svg width="14" height="14" viewBox="0 0 14 14" fill="none" xmlns="http://www.w3.org/2000/svg">
<g clip-path="url(#clip0_61_2497)">
<path d="M7.00118 4.6665C6.53969 4.6665 6.08857 4.80335 5.70485 5.05974C5.32114 5.31613 5.02207 5.68055 4.84546 6.10691C4.66886 6.53327 4.62265 7.00243 4.71268 7.45505C4.80271 7.90767 5.02494 8.32343 5.35127 8.64975C5.67759 8.97608 6.09335 9.1983 6.54597 9.28834C6.99859 9.37837 7.46775 9.33216 7.89411 9.15556C8.32047 8.97895 8.68489 8.67988 8.94128 8.29617C9.19767 7.91245 9.33451 7.46133 9.33451 6.99984C9.33451 6.381 9.08868 5.78751 8.6511 5.34992C8.21351 4.91234 7.62002 4.6665 7.00118 4.6665ZM7.00118 8.1665C6.77044 8.1665 6.54487 8.09808 6.35302 7.96989C6.16116 7.84169 6.01162 7.65948 5.92332 7.4463C5.83502 7.23312 5.81192 6.99854 5.85693 6.77223C5.90195 6.54592 6.01306 6.33804 6.17622 6.17488C6.33938 6.01172 6.54726 5.9006 6.77358 5.85559C6.99989 5.81057 7.23446 5.83368 7.44765 5.92198C7.66083 6.01028 7.84303 6.15981 7.97123 6.35167C8.09942 6.54353 8.16785 6.76909 8.16785 6.99984C8.16785 7.30926 8.04493 7.606 7.82614 7.8248C7.60735 8.04359 7.3106 8.1665 7.00118 8.1665Z" fill="#19657C"/>
<path d="M12.4217 8.10833L12.1627 7.959C12.2793 7.32459 12.2793 6.67424 12.1627 6.03983L12.4217 5.8905C12.6209 5.77559 12.7955 5.62258 12.9355 5.4402C13.0755 5.25782 13.1783 5.04965 13.2379 4.82756C13.2975 4.60547 13.3127 4.37383 13.2828 4.14584C13.2528 3.91786 13.1783 3.698 13.0634 3.49883C12.9485 3.29966 12.7955 3.12507 12.6131 2.98504C12.4307 2.845 12.2225 2.74225 12.0004 2.68267C11.7783 2.62309 11.5467 2.60783 11.3187 2.63777C11.0907 2.66771 10.8709 2.74226 10.6717 2.85717L10.4121 3.00708C9.92185 2.5882 9.35843 2.26348 8.75021 2.04925V1.75C8.75021 1.28587 8.56583 0.840752 8.23765 0.512563C7.90946 0.184374 7.46434 0 7.00021 0C6.53608 0 6.09096 0.184374 5.76277 0.512563C5.43458 0.840752 5.25021 1.28587 5.25021 1.75V2.04925C4.64202 2.26425 4.07879 2.58977 3.58888 3.00942L3.32812 2.85833C2.92588 2.62627 2.44792 2.5635 1.9994 2.68384C1.55087 2.80417 1.16852 3.09775 0.936458 3.5C0.704394 3.90224 0.641625 4.3802 0.761961 4.82873C0.882297 5.27725 1.17588 5.6596 1.57812 5.89167L1.83712 6.041C1.72052 6.67541 1.72052 7.32576 1.83712 7.96017L1.57812 8.1095C1.17588 8.34156 0.882297 8.72392 0.761961 9.17244C0.641625 9.62096 0.704394 10.0989 0.936458 10.5012C1.16852 10.9034 1.55087 11.197 1.9994 11.3173C2.44792 11.4377 2.92588 11.3749 3.32812 11.1428L3.58771 10.9929C4.07815 11.4119 4.64178 11.7366 5.25021 11.9507V12.25C5.25021 12.7141 5.43458 13.1592 5.76277 13.4874C6.09096 13.8156 6.53608 14 7.00021 14C7.46434 14 7.90946 13.8156 8.23765 13.4874C8.56583 13.1592 8.75021 12.7141 8.75021 12.25V11.9507C9.3584 11.7358 9.92163 11.4102 10.4115 10.9906L10.6723 11.1411C11.0745 11.3731 11.5525 11.4359 12.001 11.3156C12.4495 11.1952 12.8319 10.9017 13.064 10.4994C13.296 10.0972 13.3588 9.61921 13.2385 9.17069C13.1181 8.72217 12.8245 8.33981 12.4223 8.10775L12.4217 8.10833ZM10.9354 5.90567C11.1329 6.62145 11.1329 7.37738 10.9354 8.09317C10.9009 8.21775 10.9087 8.35026 10.9577 8.46989C11.0067 8.58952 11.0941 8.68948 11.206 8.75408L11.8384 9.11925C11.9724 9.1966 12.0703 9.32404 12.1104 9.47353C12.1505 9.62302 12.1295 9.78232 12.0522 9.91638C11.9748 10.0504 11.8474 10.1483 11.6979 10.1884C11.5484 10.2285 11.3891 10.2075 11.255 10.1302L10.6215 9.76383C10.5095 9.69893 10.379 9.67316 10.2507 9.69059C10.1224 9.70801 10.0035 9.76764 9.91279 9.86008C9.39357 10.3901 8.73946 10.7683 8.02104 10.9538C7.89564 10.9861 7.78454 11.0591 7.70522 11.1615C7.62591 11.2638 7.58289 11.3896 7.58296 11.5191V12.25C7.58296 12.4047 7.5215 12.5531 7.4121 12.6625C7.30271 12.7719 7.15433 12.8333 6.99963 12.8333C6.84492 12.8333 6.69654 12.7719 6.58715 12.6625C6.47775 12.5531 6.41629 12.4047 6.41629 12.25V11.5197C6.41636 11.3902 6.37334 11.2644 6.29403 11.162C6.21471 11.0597 6.10361 10.9867 5.97821 10.9544C5.25974 10.7681 4.60582 10.3891 4.08704 9.85833C3.99635 9.76589 3.87747 9.70626 3.74915 9.68884C3.62083 9.67141 3.49035 9.69718 3.37829 9.76208L2.74596 10.1278C2.67959 10.1667 2.60619 10.1921 2.52996 10.2026C2.45374 10.213 2.37621 10.2082 2.30184 10.1886C2.22747 10.1689 2.15771 10.1347 2.0966 10.088C2.03549 10.0413 1.98423 9.9829 1.94576 9.91628C1.9073 9.84965 1.88239 9.77608 1.87247 9.69979C1.86256 9.6235 1.86783 9.54601 1.88799 9.47176C1.90814 9.39752 1.94278 9.328 1.98992 9.2672C2.03705 9.2064 2.09575 9.15552 2.16262 9.1175L2.79496 8.75233C2.90693 8.68773 2.99427 8.58777 3.04326 8.46814C3.09225 8.34851 3.10012 8.216 3.06562 8.09142C2.86808 7.37563 2.86808 6.6197 3.06562 5.90392C3.0995 5.7796 3.09125 5.64756 3.04218 5.52842C2.99311 5.40928 2.90598 5.30974 2.79437 5.24533L2.16204 4.88017C2.02799 4.80281 1.93015 4.67537 1.89006 4.52588C1.84996 4.37639 1.8709 4.2171 1.94825 4.08304C2.0256 3.94899 2.15304 3.85115 2.30253 3.81106C2.45202 3.77096 2.61132 3.79189 2.74537 3.86925L3.37887 4.23558C3.49063 4.30063 3.62083 4.32671 3.74902 4.30971C3.8772 4.29271 3.99611 4.2336 4.08704 4.14167C4.60626 3.61162 5.26037 3.23343 5.97879 3.04792C6.10458 3.01558 6.21597 2.94219 6.29533 2.83938C6.37468 2.73656 6.41746 2.61021 6.41688 2.48033V1.75C6.41688 1.59529 6.47833 1.44692 6.58773 1.33752C6.69713 1.22812 6.8455 1.16667 7.00021 1.16667C7.15492 1.16667 7.30329 1.22812 7.41269 1.33752C7.52208 1.44692 7.58354 1.59529 7.58354 1.75V2.48033C7.58348 2.60981 7.62649 2.73563 7.70581 2.83796C7.78512 2.9403 7.89623 3.01334 8.02163 3.04558C8.7403 3.23176 9.39444 3.61077 9.91337 4.14167C10.0041 4.23411 10.1229 4.29374 10.2513 4.31116C10.3796 4.32859 10.5101 4.30282 10.6221 4.23792L11.2545 3.87217C11.3208 3.83326 11.3942 3.80786 11.4705 3.79744C11.5467 3.78702 11.6242 3.79178 11.6986 3.81144C11.773 3.83111 11.8427 3.86529 11.9038 3.91202C11.9649 3.95875 12.0162 4.0171 12.0547 4.08373C12.0931 4.15035 12.118 4.22392 12.1279 4.30021C12.1379 4.3765 12.1326 4.45399 12.1124 4.52824C12.0923 4.60248 12.0576 4.672 12.0105 4.7328C11.9634 4.7936 11.9047 4.84448 11.8378 4.8825L11.2055 5.24767C11.0941 5.31224 11.0072 5.41186 10.9583 5.53099C10.9095 5.65012 10.9014 5.78206 10.9354 5.90625V5.90567Z" fill="#19657C"/>
</g>
<defs>
<clipPath id="clip0_61_2497">
<rect width="14" height="14" fill="white"/>
</clipPath>
</defs>
</svg>
